<svg xmlns="http://www.w3.org/2000/svg" width="149" height="44" fill="none"  ><mask id="A" mask-type="alpha" maskUnits="userSpaceOnUse" x="0" y="0" width="149" height="44"><rect width="148.05" height="43.544" rx="6" fill="#fff"/></mask><g mask="url(#A)"><path fill="#4a4a4a" d="M0 0h148.05v43.544H0z"/></g><path d="M59.006 28.212h2.282l-4.995-13.727h-2.311l-4.995 13.727h2.205l1.275-3.643h5.273l1.266 3.643zm-3.978-11.234h.163l2.004 5.803h-4.18l2.014-5.803zm12.31.704c-1.419 0-2.646.704-3.279 1.883h-.153v-1.712H61.92V31.57h2.061v-4.928h.163c.546 1.094 1.726 1.741 3.212 1.741 2.637 0 4.314-2.064 4.314-5.356s-1.678-5.346-4.334-5.346zm-.584 8.866c-1.726 0-2.809-1.351-2.809-3.51 0-2.169 1.084-3.52 2.819-3.52 1.745 0 2.79 1.322 2.79 3.51 0 2.197-1.045 3.52-2.8 3.52zm11.276-8.866c-1.419 0-2.646.704-3.279 1.883h-.153v-1.712h-1.985V31.57h2.061v-4.928h.163c.546 1.094 1.726 1.741 3.212 1.741 2.637 0 4.315-2.064 4.315-5.356s-1.678-5.346-4.334-5.346zm-.586 8.866c-1.726 0-2.809-1.351-2.809-3.51 0-2.169 1.083-3.52 2.819-3.52 1.745 0 2.79 1.322 2.79 3.51 0 2.197-1.045 3.52-2.8 3.52zm9.283-2.026c.153 2.454 2.215 4.024 5.283 4.024 3.279 0 5.331-1.646 5.331-4.271 0-2.064-1.17-3.206-4.008-3.862l-1.525-.371c-1.802-.419-2.531-.98-2.531-1.96 0-1.237 1.131-2.045 2.828-2.045 1.611 0 2.723.79 2.924 2.055h2.09c-.125-2.312-2.176-3.938-4.986-3.938-3.02 0-5.034 1.627-5.034 4.071 0 2.017 1.141 3.215 3.643 3.796l1.783.428c1.831.428 2.637 1.056 2.637 2.102 0 1.218-1.266 2.102-2.991 2.102-1.85 0-3.135-.828-3.317-2.131h-2.129zm12.387-9.18V17.9h-1.716v1.722h1.716v5.85c0 1.998.911 2.797 3.202 2.797a6.39 6.39 0 0 0 1.103-.105v-1.703l-.767.047c-1.026 0-1.476-.476-1.476-1.56v-5.327h2.339V17.9h-2.339v-2.559h-2.062zm9.512 11.254c-1.793 0-2.8-1.303-2.8-3.567 0-2.245 1.007-3.558 2.8-3.558 1.783 0 2.8 1.313 2.8 3.558 0 2.255-1.017 3.567-2.8 3.567zm0 1.817c3.049 0 4.919-2.026 4.919-5.384 0-3.339-1.879-5.375-4.919-5.375-3.049 0-4.928 2.036-4.928 5.375 0 3.358 1.87 5.384 4.928 5.384zm5.859-.2h2.061v-6.117c0-1.455 1.103-2.435 2.656-2.435.345 0 .978.067 1.141.124v-2.017c-.221-.057-.614-.086-.911-.086-1.361 0-2.512.742-2.809 1.76h-.154v-1.589h-1.984v10.359zm10.499-8.818c1.524 0 2.522 1.056 2.569 2.683h-5.273c.115-1.617 1.179-2.683 2.704-2.683zm2.56 6.021c-.383.809-1.237 1.256-2.483 1.256-1.649 0-2.713-1.151-2.781-2.968v-.114h7.374v-.713c0-3.253-1.755-5.222-4.66-5.222-2.944 0-4.813 2.102-4.813 5.413s1.831 5.346 4.822 5.346c2.388 0 4.056-1.142 4.526-2.997h-1.985zm-93.07-3.946c-.03-3.29 2.748-4.891 2.875-4.965-1.574-2.249-4.013-2.556-4.87-2.581-2.048-.211-4.035 1.202-5.079 1.202-1.064 0-2.671-1.181-4.403-1.146-2.229.034-4.313 1.298-5.457 3.263-2.36 4.005-.6 9.89 1.661 13.127 1.131 1.586 2.453 3.355 4.182 3.293 1.692-.067 2.324-1.058 4.367-1.058 2.023 0 2.617 1.058 4.381 1.017 1.816-.026 2.96-1.592 4.051-3.192 1.307-1.815 1.832-3.607 1.853-3.699-.042-.013-3.526-1.317-3.562-5.26zm-3.334-9.675c.91-1.116 1.533-2.634 1.36-4.174-1.317.057-2.965.893-3.914 1.985-.839.962-1.589 2.538-1.395 4.02 1.48.108 2.999-.732 3.949-1.83z" fill-rule="evenodd" fill="#fff"/></svg>