<svg xmlns="http://www.w3.org/2000/svg" xmlns:xlink="http://www.w3.org/1999/xlink" width="145" height="44" fill="none" ><style><![CDATA[.B{fill-rule:evenodd}]]></style><g clip-path="url(#G)"><mask id="A" mask-type="alpha" maskUnits="userSpaceOnUse" x="0" y="0" width="145" height="44"><rect y=".544" width="145" height="43" rx="6" fill="#fff"/></mask><g mask="url(#A)"><path fill="#4a4a4a" d="M0 .544h145v43H0z"/></g><g fill="#fff"><path d="M109.926 14.349h-5.655v8.578h5.655s3.254-.554 3.254-4.289-3.254-4.289-3.254-4.289zm-.719 2.075h-3.838v4.603h3.838s1.747 0 1.747-2.302-1.747-2.302-1.747-2.302z" class="B"/><path d="M103.772 14.35h1.995v13.955h-1.995zm10.573-.001h1.995v13.955h-1.995z"/><g class="B"><path d="M121.668 19.034c-2.79 0-3.72 1.916-3.72 1.916l1.662.981s.401-.981 2.217-.981c1.317 0 1.76.991 1.903 1.535v.415c-.579-.282-1.833-.724-3.622-.458-2.428.361-2.38 2.555-2.372 2.902v.033c0 .195.002 3.094 3.18 2.896 1.387-.087 2.265-.513 2.814-.966v.993h1.995v-6.036l.002-.033c0-.805-.591-3.197-4.059-3.197zm-2.056 6.406c.134-2.158 3.976-1.122 3.976-1.122s.052.228.052.714c-.342 1.529-4.162 2.566-4.028.408zm10.854-.032l-2.559-6.074h-1.995l3.556 8.442-1.86 4.416h1.995l5.396-12.81h-1.995l-2.538 6.026zm-35.378-6.374c3.344 0 4.219 3.561 4.219 3.561l-6.309 2.606s.407 1.441 2.304 1.451c1.485.008 2.324-1.316 2.324-1.316l1.6 1.083s-1.291 2.088-3.937 2.088c-3.25 0-4.682-2.841-4.682-4.686 0-1.777 1.136-4.787 4.481-4.787zm-.192 1.838c1.217-.223 2.011.984 2.011.984l-4.262 1.739s-.324-2.252 2.251-2.723z"/></g><path d="M87.616 14.349h2.11v13.926h-2.11z"/><g class="B"><path d="M84.239 20.206v-.869l1.951.017v8.787c0 2.245-1.337 4.615-4.486 4.615s-4.165-2.788-4.165-2.788l1.791-.753s.546 1.718 2.467 1.718c2.187 0 2.442-1.989 2.442-2.669v-.954s-.757 1.184-2.636 1.184c-2.038 0-4.459-1.745-4.459-4.719s2.28-4.676 4.483-4.738c1.764-.05 2.612 1.17 2.612 1.17zm-2.469 6.502c1.422 0 2.576-1.302 2.576-2.909s-1.153-2.909-2.576-2.909-2.576 1.302-2.576 2.909 1.153 2.909 2.576 2.909zm-10.25 1.796c2.622 0 4.748-2.12 4.748-4.735s-2.126-4.735-4.748-4.735-4.748 2.12-4.748 4.735 2.126 4.735 4.748 4.735zm-.031-1.857c1.474 0 2.669-1.288 2.669-2.878s-1.195-2.878-2.669-2.878-2.669 1.289-2.669 2.878 1.195 2.878 2.669 2.878zm-10.242 1.857c2.622 0 4.748-2.12 4.748-4.735s-2.126-4.735-4.748-4.735-4.748 2.12-4.748 4.735 2.126 4.735 4.748 4.735zm-.03-1.857c1.474 0 2.669-1.288 2.669-2.878s-1.195-2.878-2.669-2.878-2.669 1.289-2.669 2.878 1.195 2.878 2.669 2.878zm-12.229-6.111h6.268l-.062 1.981h-6.206v-1.981z"/><path d="M55.868 21.185c0 4.051-3.207 7.334-7.164 7.334s-7.164-3.284-7.164-7.334 3.208-7.334 7.164-7.334c2.011 0 3.828.848 5.129 2.213l-1.381 1.377c-.933-.956-2.222-1.548-3.645-1.548-2.848 0-5.158 2.369-5.158 5.292s2.309 5.292 5.158 5.292 5.158-2.369 5.158-5.292c0-.22-.013-.437-.038-.65h1.914c.018.214.028.431.028.65z"/></g></g><use xlink:href="#H" fill="url(#C)" class="B"/><mask id="B" mask-type="alpha" maskUnits="userSpaceOnUse" x="11" y="13" width="20" height="21"><use xlink:href="#H" fill="#fff" class="B"/></mask><g mask="url(#B)" class="B"><path d="M10.749 10.175l12.503 12.42-12.664 12.911.162-25.331z" fill="url(#D)"/><path d="M8.178 7.618l15.072 14.98 4.481-4.273L8.178 7.618z" fill="url(#E)"/><path d="M23.252 22.596l6.86 6.911-20.494 6.911 13.634-13.822z" fill="url(#F)"/></g></g><defs><linearGradient id="C" x1="31.749" y1="18.903" x2="23.967" y2="18.903" gradientUnits="userSpaceOnUse"><stop stop-color="#fbda09"/><stop offset="1" stop-color="#ffbc00"/></linearGradient><linearGradient id="D" x1="11.816" y1="33.765" x2="21.099" y2="32.467" gradientUnits="userSpaceOnUse"><stop stop-color="#01e2ff"/><stop offset="1" stop-color="#01c4ff"/></linearGradient><linearGradient id="E" x1="5.933" y1="15.389" x2="15.124" y2="27.382" gradientUnits="userSpaceOnUse"><stop stop-color="#28d781"/><stop offset="1" stop-color="#02f076"/></linearGradient><linearGradient id="F" x1="17.326" y1="20.555" x2="9.473" y2="33.894" gradientUnits="userSpaceOnUse"><stop stop-color="#f2414e"/><stop offset="1" stop-color="#e02554"/></linearGradient><clipPath id="G"><path fill="#fff" transform="translate(0 .544)" d="M0 0h145v43H0z"/></clipPath><path id="H" d="M29.141 21.009c1.698.953 1.698 3.397 0 4.349l-13.679 7.673c-1.662.932-3.713-.269-3.713-2.175V15.511c0-1.906 2.051-3.107 3.713-2.175l13.679 7.673z"/></defs></svg>