<svg xmlns="http://www.w3.org/2000/svg" width="12" height="12"><path d="M7.409 5.999l4.296-4.286c.188-.188.294-.443.294-.709s-.106-.521-.294-.709S11.261 0 10.995 0s-.521.106-.709.294L6 4.59 1.714.294C1.526.106 1.271 0 1.005 0S.484.106.296.294.002.737.002 1.003s.106.521.294.709l4.296 4.286-4.296 4.286a1 1 0 0 0-.296.709 1 1 0 0 0 .296.709 1 1 0 0 0 .709.296 1 1 0 0 0 .709-.296L6 7.408l4.286 4.296a1 1 0 0 0 .709.296 1 1 0 0 0 .709-.296 1 1 0 0 0 .296-.709 1 1 0 0 0-.296-.709L7.409 5.999z" fill="#8f8f8f"/></svg>