<svg xmlns="http://www.w3.org/2000/svg" width="208" height="24"  ><defs><linearGradient x1="104.507297%" y1="46.3725644%" x2="-1.15583306%" y2="59.0590569%" id="A"><stop stop-color="#ffe500" offset="0%"/><stop stop-color="#f18500" offset="100%"/></linearGradient><linearGradient x1="24.2623275%" y1="8.35856024%" x2="60.8187867%" y2="108.951501%" id="B"><stop stop-color="#fdc300" offset="0%"/><stop stop-color="#d7030d" offset="100%"/></linearGradient><linearGradient x1="-4.7861%" y1="53.8591221%" x2="101.060407%" y2="40.3561087%" id="C"><stop stop-color="#ffed00" offset="0%"/><stop stop-color="#9fc515" offset="100%"/></linearGradient><linearGradient x1="46.2183217%" y1="-3.6738244%" x2="59.7607056%" y2="100.831191%" id="D"><stop stop-color="#32a934" offset="0%"/><stop stop-color="#c7d300" offset="100%"/></linearGradient></defs><g fill-rule="evenodd"><path d="M106.636 14.088c-.404 0-.785.181-1.041.493-.888 1.013-1.985 1.515-3.291 1.515-.823 0-1.557-.181-2.203-.539a3.87 3.87 0 0 1-1.511-1.511c-.363-.646-.539-1.38-.539-2.203s.181-1.557.539-2.203a3.87 3.87 0 0 1 1.511-1.511c.646-.363 1.38-.539 2.203-.539 1.065 0 1.994.335 2.784 1.004.317.274.544.432.991.432a1.35 1.35 0 0 0 1.352-1.353c0-.395-.167-.748-.437-.999l-.004-.005-.019-.019a6.27 6.27 0 0 0-1.697-1.074c-.929-.404-1.97-.609-3.123-.609-1.367 0-2.599.293-3.691.883s-1.957 1.404-2.58 2.45-.939 2.226-.939 3.542.311 2.496.939 3.542 1.487 1.859 2.58 2.45 2.32.883 3.672.883c1.153 0 2.194-.204 3.133-.609a6.16 6.16 0 0 0 2.315-1.715 1.35 1.35 0 0 0-.944-2.306zm-15.822-9.11c.734 0 1.329.6 1.329 1.329v11.081c0 .73-.6 1.329-1.329 1.329s-1.329-.6-1.329-1.329v-.111c-1.162.902-2.622 1.441-4.211 1.441-3.793 0-6.87-3.077-6.87-6.87s3.077-6.87 6.87-6.87c1.585 0 3.049.539 4.211 1.441v-.112c0-.73.6-1.329 1.329-1.329zm-1.329 7.126v-.507a4.22 4.22 0 0 0-4.211-3.965c-2.329 0-4.216 1.887-4.216 4.216s1.887 4.216 4.216 4.216a4.21 4.21 0 0 0 4.211-3.96zm53.557-6.898a1.33 1.33 0 0 1 1.32 1.227 6.86 6.86 0 0 1 4.221-1.45c3.793 0 6.87 3.077 6.87 6.87s-3.077 6.87-6.87 6.87a6.83 6.83 0 0 1-4.216-1.446v4.221a1.33 1.33 0 0 1-1.325 1.325 1.33 1.33 0 0 1-1.325-1.325V6.525c0-.725.595-1.32 1.325-1.32zm5.541 2.426c-2.329 0-4.216 1.887-4.216 4.216s1.887 4.216 4.216 4.216 4.216-1.887 4.216-4.216a4.22 4.22 0 0 0-4.216-4.216zm39.751 2.682c.693 0 1.255.562 1.255 1.255s-.562 1.255-1.255 1.255-1.255-.562-1.255-1.255a1.26 1.26 0 0 1 1.255-1.255zm15.906 3.207v.8l-.005.046-.004.023-.005.023-.009.046-.014.065-.014.042-.009.019-.01.023-.014.037-.009.023-.018.037-.01.019-.023.037-.023.033-.014.018-.028.033-.028.033-.028.033-.032.028-.033.028-.032.028-.038.023-.037.023-.018.009-.038.019-.023.009-.037.019-.037.014-.023.009-.042.014-.024.005-.041.009-.024.005-.041.005-.024.005-.041.005h-.093l-.047-.005-.023-.005-.042-.005-.023-.005-.042-.009-.042-.014-.023-.009-.037-.014-.024-.009-.041-.018-.038-.019-.018-.009-.033-.023-.018-.014-.019-.014-.019-.014-.032-.023-.033-.028-.032-.028-.028-.028-.028-.033-.028-.033-.023-.033-.014-.023-.023-.037-.01-.019-.018-.037-.019-.037-.014-.037-.009-.023-.014-.042-.014-.065-.004-.023-.01-.046-.004-.023-.005-.042v-.795h-.999c-.498 0-1-.074-1.455-.279a2.24 2.24 0 0 1-.986-.823c-.241-.377-.348-.804-.348-1.25s.102-.878.348-1.255.581-.637.981-.823c.456-.205.958-.284 1.455-.284h3.774c.498 0 1 .074 1.455.284.405.181.739.451.981.823a2.26 2.26 0 0 1 .349 1.255c0 .446-.103.874-.349 1.25s-.576.641-.986.823c-.455.204-.957.279-1.454.279h-.972v-.005zm-10.319 0v.753a.89.89 0 0 1-.888.888.89.89 0 0 1-.887-.888V9.7a.89.89 0 0 1 .887-.888h1.887c.498 0 1 .074 1.455.284.405.181.739.451.981.823a2.26 2.26 0 0 1 .349 1.255c0 .446-.103.874-.349 1.25s-.576.641-.985.823c-.456.204-.958.279-1.455.279h-.995v-.005zm10.319-3.184v1.664h.92c.275 0 .6-.042.814-.223.186-.153.251-.367.251-.604s-.061-.46-.251-.614c-.219-.181-.544-.223-.814-.223h-.92zm-1.78 1.664v-1.664h-.92c-.275 0-.6.042-.814.223-.19.158-.251.377-.251.614s.065.451.251.604c.219.181.544.223.814.223h.92zm-8.539-1.664v1.664h.92c.275 0 .6-.042.814-.223.186-.153.251-.367.251-.604s-.061-.46-.251-.614c-.219-.181-.544-.223-.814-.223h-.92zm-10.57.962a3.71 3.71 0 0 0 .851-2.366 3.73 3.73 0 0 0-3.728-3.728h-5.722c-.786 0-1.422.628-1.436 1.413v10.696c0 .651.53 1.181 1.18 1.181h6.308a4.05 4.05 0 0 0 4.048-4.049c-.004-1.274-.585-2.408-1.501-3.147zm-6.958 4.913v-3.389h3.946a1.7 1.7 0 0 1 1.697 1.697 1.7 1.7 0 0 1-1.697 1.697h-3.946v-.005zm.562-8.502h3.128c.721 0 1.302.586 1.302 1.306s-.586 1.301-1.302 1.301h-3.695V7.71h.567zm-7.604 5.113h-8.813c.46 1.632 1.961 2.835 3.737 2.835 1.292 0 2.51-.437 3.337-1.199a1.42 1.42 0 0 1 2.004.088c.53.576.488 1.473-.089 2.003-1.348 1.236-3.263 1.943-5.257 1.943-3.704 0-6.716-3.012-6.716-6.717s3.012-6.717 6.716-6.717c3.38 0 6.22 2.663 6.582 6.015.009.07.014.144.014.219.005.841-.679 1.52-1.515 1.529zm-1.316-2.51a4.01 4.01 0 0 0-3.704-2.468c-1.669 0-3.101 1.018-3.705 2.468h7.409zm-1.585-6.047a1.55 1.55 0 0 1-1.548-1.548 1.55 1.55 0 0 1 1.548-1.548c.856 0 1.548.693 1.548 1.548s-.692 1.548-1.548 1.548zm-4.783 0a1.55 1.55 0 0 1-1.548-1.548 1.55 1.55 0 0 1 1.548-1.548c.856 0 1.548.693 1.548 1.548s-.692 1.548-1.548 1.548zm-106.862.711c3.793 0 6.87 3.077 6.87 6.87s-3.077 6.87-6.87 6.87-6.87-3.077-6.87-6.87 3.073-6.87 6.87-6.87zm0 2.654c-2.329 0-4.216 1.887-4.216 4.216s1.887 4.216 4.216 4.216 4.216-1.887 4.216-4.216a4.22 4.22 0 0 0-4.216-4.216zm-20.666-1.98c.019.019.032.037.051.051l4.304 4.495 4.379-4.551a1.54 1.54 0 0 1 1.083-.446c.851 0 1.543.693 1.543 1.543v10.198a1.55 1.55 0 0 1-1.543 1.543c-.851 0-1.543-.693-1.543-1.543v-6.8l-2.947 3.063c-.256.246-.562.372-.879.395h-.195c-.316-.019-.627-.149-.869-.386l-.042-.042-2.891-3.003v6.772a1.55 1.55 0 0 1-1.543 1.543 1.55 1.55 0 0 1-1.543-1.543V6.743c0-.851.692-1.543 1.543-1.543a1.55 1.55 0 0 1 1.092.451zm89.692-.446c.841 0 1.529.688 1.529 1.529v2.835h3.379c1.618 0 2.864.363 3.733 1.083s1.301 1.79 1.301 3.207c0 1.506-.478 2.654-1.431 3.444s-2.301 1.185-4.035 1.185h-4.471c-.842 0-1.53-.688-1.53-1.529V6.729c-.004-.841.684-1.525 1.525-1.525zm1.525 6.642v4.365h2.77c.795 0 1.422-.195 1.868-.59.451-.39.674-.962.674-1.706 0-1.38-.845-2.068-2.542-2.068h-2.77zm12.034-6.642c.841 0 1.529.688 1.529 1.529v10.231c0 .841-.688 1.529-1.529 1.529s-1.529-.688-1.529-1.529V6.734c.004-.846.692-1.529 1.529-1.529zm-22.762 0h4.518A1.26 1.26 0 0 1 120.4 6.46c0 .688-.563 1.25-1.255 1.25h-2.999v9.264c0 .837-.683 1.52-1.519 1.52s-1.52-.683-1.52-1.52V7.71h-2.98c-.688 0-1.25-.562-1.25-1.25a1.26 1.26 0 0 1 1.25-1.255h4.5zm-48.969 0c.846 0 1.539.693 1.539 1.539v3.7h6.038v-3.7c0-.846.692-1.539 1.538-1.539s1.539.693 1.539 1.539v10.212c0 .846-.693 1.538-1.539 1.538s-1.538-.693-1.538-1.538v-3.909h-6.038v3.909c0 .846-.693 1.538-1.539 1.538s-1.539-.693-1.539-1.538V6.743a1.54 1.54 0 0 1 1.539-1.539z" fill="#00893d"/><path d="M13.921 23.51c-3.663.651-7.228-.456-9.836-2.715 2.873 1.013 6.029 1.339 9.236.813l.251-.042c.191-.033.377-.074.562-.116 4.774-1.134 7.981-5.615 7.544-10.477a18.62 18.62 0 0 1-1.223 9.018c-1.687 1.78-3.937 3.058-6.535 3.519z" fill="url(#A)"/><path d="M11.581 5.632c1.301 4.276 3.607 8.111 6.647 11.235h-2.659c-2.761-3.221-4.848-7.037-6.033-11.235h2.045z" fill="#ffd800"/><path d="M14.162 5.632c-1.181 4.193-3.258 8.014-6.015 11.235H5.493c3.026-3.124 5.327-6.963 6.619-11.235h2.05z" fill="#e5310e"/><path d="M18.452 14.399c-1.971 1.041-4.216 1.636-6.605 1.636s-4.634-.59-6.605-1.636V12.14c1.91 1.204 4.174 1.901 6.605 1.901a12.37 12.37 0 0 0 6.605-1.901v2.259z" fill="#5cb136"/><path d="M3.355 3.587l.098-.102-.098.102zm.73 17.208C2.104 19.08.677 16.7.185 13.92A11.82 11.82 0 0 1 3.248 3.703l-.009.009c-1.116 2.78-1.576 5.861-1.222 9.013a10.65 10.65 0 0 0 .112.851 9.87 9.87 0 0 0 11.193 8.032l.251-.042c-3.198.688-6.359.367-9.487-.772z" fill="url(#B)"/><path d="M9.779.185c3.663-.651 7.228.456 9.836 2.715-2.873-1.013-6.029-1.339-9.236-.813l-.251.042c-5.08.902-8.562 5.545-8.106 10.593-.353-3.152.107-6.233 1.222-9.013A11.76 11.76 0 0 1 9.779.185z" fill="url(#C)"/><path d="M20.339 20.107l-.098.102.098-.102zm-.73-17.208c1.98 1.715 3.407 4.095 3.9 6.875a11.82 11.82 0 0 1-3.063 10.217l.009-.009c1.116-2.78 1.576-5.861 1.223-9.013l-.111-.851a9.87 9.87 0 0 0-11.193-8.032l-.251.042c3.203-.693 6.363-.367 9.487.772z" fill="url(#D)"/></g></svg>