<svg xmlns="http://www.w3.org/2000/svg" width="30" height="30" fill="none"><path d="M25.892 20.88c-1.822-1.55-3.67-2.489-5.469-.941l-1.074.935c-.786.679-2.247 3.852-7.898-2.616-5.649-6.459-2.287-7.465-1.5-8.138l1.08-.937c1.79-1.551 1.114-3.504-.177-5.514l-.779-1.218C8.778.447 7.366-.87 5.572.679l-.97.843c-.793.575-3.01 2.443-3.548 5.993-.647 4.259 1.394 9.137 6.072 14.488 4.671 5.354 9.245 8.043 13.578 7.996 3.601-.039 5.775-1.961 6.455-2.66l.973-.844c1.79-1.548.678-3.124-1.145-4.677l-1.095-.938z" fill="#00893d"/></svg>