<svg xmlns="http://www.w3.org/2000/svg" width="22" height="32" fill="none"><path d="M11 .32c3.048 0 5.643 1.103 7.786 3.308S22 8.492 22 11.602a11.29 11.29 0 0 1-2.217 6.811l-6.927 12.285c-.057.129-.143.282-.258.458l-.069.123h-.034A1.87 1.87 0 0 1 11 32a1.83 1.83 0 0 1-1.598-.862l-.018.018v-.035L2.183 18.36C.727 16.365 0 14.113 0 11.602c0-3.109 1.071-5.767 3.214-7.973S7.952.32 11 .32z" fill="url(#A)"/><path fill="#d8d8d8" fill-opacity=".01" d="M2.64 2.96h16.72v16.72H2.64z"/><g fill-rule="evenodd" fill="#fff"><path d="M12.389 19.371a8.23 8.23 0 0 1-6.862-1.892c2.003.709 4.212.93 6.451.568.063-.016.111-.016.174-.032.126-.016.268-.047.394-.079a6.9 6.9 0 0 0 5.268-7.299c.252 2.207-.079 4.351-.852 6.29-1.199 1.23-2.76 2.128-4.574 2.444z"/><path d="M5.528 17.479a8.21 8.21 0 0 1-2.729-4.792c-.473-2.68.394-5.297 2.145-7.126a12.96 12.96 0 0 0-.852 6.29c.016.205.047.394.079.599.662 3.689 4.133 6.164 7.808 5.596.063-.016.11-.016.174-.031-2.24.489-4.448.252-6.625-.536zm-.52-11.997c.016-.032.047-.047.063-.063l-.063.063z"/><path d="M9.486 3.102a8.23 8.23 0 0 1 6.861 1.892c-2.003-.709-4.212-.93-6.451-.568-.063.016-.11.016-.174.032a6.89 6.89 0 0 0-5.663 7.394 12.96 12.96 0 0 1 .852-6.29 8.4 8.4 0 0 1 4.574-2.459z"/><path d="M16.348 4.994a8.21 8.21 0 0 1 2.729 4.792c.473 2.68-.394 5.297-2.145 7.126.773-1.939 1.104-4.083.852-6.29-.016-.205-.047-.394-.079-.599-.663-3.689-4.133-6.164-7.808-5.596-.063.016-.11.016-.174.032 2.24-.473 4.448-.252 6.625.536zm.52 12.012c-.016.032-.047.047-.063.063.016-.016.032-.047.063-.063zm-6.12-10.105c.915 2.98 2.524 5.66 4.637 7.835h-1.861a20.74 20.74 0 0 1-4.211-7.835h1.435z"/><path d="M12.545 6.901c-.82 2.932-2.271 5.596-4.196 7.835H6.504c2.114-2.176 3.723-4.856 4.622-7.835h1.42z"/><path d="M15.543 13.017a9.86 9.86 0 0 1-4.606 1.135 9.81 9.81 0 0 1-4.606-1.135v-1.577c1.341.836 2.918 1.324 4.606 1.324s3.281-.489 4.606-1.324v1.577z"/></g><defs><linearGradient id="A" x1="8.311" y1="-4.828" x2="29.223" y2="25.561" gradientUnits="userSpaceOnUse"><stop stop-color="#00893d"/><stop offset="1" stop-color="#63b31f"/></linearGradient></defs></svg>