<svg xmlns="http://www.w3.org/2000/svg" width="19" height="18"><path d="M7.369 2.225c2.81 0 5.098 2.242 5.098 4.999 0 2.775-2.612 4.999-5.098 4.999-2.817 0-5.105-2.242-5.105-4.999s2.288-4.999 5.105-4.999zM0 7.225c0 3.993 3.297 7.225 7.369 7.225 1.734 0 3.308-.588 4.571-1.567.013-.01 1.629 1.573 4.849 4.749.255.246.586.369.916.369s.661-.123.917-.376a1.25 1.25 0 0 0 0-1.792l-4.962-4.869a7.04 7.04 0 0 0 1.071-3.739C14.731 3.232 11.434 0 7.369 0 3.297 0 0 3.232 0 7.225z" fill="#4a4a4a" fill-rule="evenodd"/></svg>