<svg xmlns="http://www.w3.org/2000/svg" width="28" height="24"  fill="#8f8f8f"><path d="M11.428 19.429a2.29 2.29 0 0 1 2.286 2.285A2.29 2.29 0 0 1 11.428 24a2.29 2.29 0 0 1-2.286-2.286 2.29 2.29 0 0 1 2.286-2.285zm9.144 0a2.29 2.29 0 0 1 2.286 2.285A2.29 2.29 0 0 1 20.572 24a2.29 2.29 0 0 1-2.286-2.286 2.29 2.29 0 0 1 2.286-2.285zM5.019 0c.448 0 .84.298.953.724l.824 3.115h19.619a.99.99 0 0 1 .779.376.96.96 0 0 1 .174.835l-3.046 11.516c-.113.426-.505.724-.953.724H9.08c-.448 0-.84-.298-.953-.724L4.257 1.935H.984C.441 1.935 0 1.502 0 .968S.441 0 .984 0h4.034zm20.123 5.774H7.307l2.534 9.581h12.766l2.534-9.581zm-5.836 1.664l.115.005c.541.055.934.53.878 1.062h0l-.454 4.318a.98.98 0 0 1-.978.868 1.01 1.01 0 0 1-.102-.005c-.541-.055-.934-.53-.878-1.062h0l.454-4.318a.98.98 0 0 1 1.08-.863zm-6.702 5.385c.052.498.48.868.978.868a1.01 1.01 0 0 0 .102-.005c.541-.055.934-.53.878-1.062l-.454-4.318a.98.98 0 0 0-1.08-.863c-.541.055-.934.53-.878 1.062l.454 4.319z"/></svg>