<svg xmlns="http://www.w3.org/2000/svg" width="23" height="25" fill="none"><path fill-rule="evenodd" d="M5.108 6.5c0 3.406 2.859 6.167 6.385 6.167s6.385-2.761 6.385-6.167S15.02.333 11.493.333 5.108 3.094 5.108 6.5zm17.879 14.8v2.467c0 .681-.572 1.233-1.277 1.233s-1.277-.552-1.277-1.233V21.3c0-2.043-1.715-3.7-3.831-3.7H6.385c-2.116 0-3.831 1.657-3.831 3.7v2.467c0 .681-.572 1.233-1.277 1.233S0 24.448 0 23.767V21.3c0-3.406 2.859-6.167 6.385-6.167h10.216c3.526 0 6.385 2.761 6.385 6.167z" fill="url(#A)"/><defs><linearGradient id="A" x1="1.983" y1="-1.605" x2="19.426" y2="27.995" gradientUnits="userSpaceOnUse"><stop stop-color="#79dbf1"/><stop offset="1" stop-color="#0056fc"/></linearGradient></defs></svg>